<svg width="100" height="100" viewBox="0 0 100 100" fill="none" xmlns="http://www.w3.org/2000/svg">
<path d="M49.972 87.3474C29.3057 87.3474 12.4907 70.552 12.4907 49.9085C12.4907 29.2787 29.2936 12.4849 49.9477 12.4696C70.6355 12.4696 87.4477 29.265 87.4477 49.9085C87.4477 70.552 70.6355 87.3474 49.972 87.3474Z" fill="white"/>
<path d="M49.972 10.9097H49.9477C28.4375 10.925 10.9308 28.4133 10.9308 49.9085C10.9308 71.4125 28.4497 88.9073 49.9721 88.9073C71.5007 88.9073 89.0077 71.4125 89.0077 49.9085C89.0077 28.4043 71.5006 10.9097 49.972 10.9097Z" fill="#27323A"/>
<path d="M38.1809 17.6247C35.7009 20.3668 33.5681 23.9378 31.9167 28.1665H23.3067C27.1883 23.4259 32.3252 19.7637 38.1809 17.6247ZM21.0885 31.2287H30.8383C29.2234 36.3625 28.279 42.261 28.1633 48.5859H15.5922C15.8358 42.2002 17.8101 36.2649 21.0885 31.2287ZM21.1372 68.6767C17.9016 63.7289 15.9273 57.9093 15.6166 51.6451H28.1755C28.3277 57.8484 29.2724 63.6312 30.8689 68.6767H21.1372ZM23.3676 71.7358H31.9532C33.5986 75.928 35.7193 79.4685 38.1808 82.1984C32.3558 80.0656 27.237 76.4399 23.3676 71.7358ZM48.4427 84.2398C47.4371 84.1911 46.4441 84.1178 45.4628 83.9836C41.3801 82.0764 37.8337 77.7014 35.2807 71.7358H48.4426V84.2398H48.4427ZM48.4427 68.6767H34.1229C32.4288 63.6983 31.4051 57.8849 31.2345 51.6451H48.4427V68.6767ZM48.4427 48.586H31.2223C31.3561 42.2184 32.3801 36.2955 34.0982 31.2288H48.4426V48.586H48.4427ZM48.4427 28.1665H35.2561C37.7972 22.1582 41.368 17.7526 45.4691 15.8332C46.4441 15.7053 47.4372 15.626 48.4427 15.5833V28.1665Z" fill="#79CCBF"/>
<path d="M50.4839 26.5579C50.4839 25.4366 51.3918 24.5287 52.5131 24.5287C65.2364 24.5287 75.5895 34.8819 75.5895 47.6052C75.5895 48.7264 74.6816 49.6343 73.5604 49.6343C72.4391 49.6343 71.5312 48.7264 71.5312 47.6052C71.5312 37.1182 63.0001 28.5871 52.5131 28.5871C51.3918 28.5871 50.4839 27.6792 50.4839 26.5579Z" fill="#F4CE73"/>
<path d="M68.8684 51.6451C68.7099 57.8849 67.6742 63.6983 65.98 68.6767H51.5018V51.6451H68.8684Z" fill="#79CCBF"/>
<path d="M51.5563 42.4195C51.5563 38.8669 54.4326 35.9879 57.9852 35.9879C61.5378 35.9879 64.42 38.8669 64.42 42.4195C64.42 45.9721 61.5378 48.8512 57.9852 48.8512C54.4325 48.8512 51.5563 45.9721 51.5563 42.4195Z" fill="#F4CE73"/>
<path d="M54.7068 83.9533C53.6526 84.0997 52.5862 84.1911 51.5018 84.2398V71.7358H64.8222C62.2873 77.6648 58.759 82.0215 54.7068 83.9533ZM62.0009 82.1069C64.4322 79.3951 66.5223 75.8792 68.1493 71.7357H76.5768C72.7561 76.3728 67.735 79.962 62.0009 82.1069ZM78.8069 68.6767H69.2341C70.8305 63.6312 71.775 57.8484 71.9334 51.6451H84.3279C84.0168 57.9092 82.0425 63.7289 78.8069 68.6767Z" fill="#79CCBF"/>
<path d="M83.048 49.6343C81.9267 49.6343 81.0188 48.7264 81.0188 47.6051C81.0188 31.8836 68.2347 19.0963 52.5131 19.0963C51.3918 19.0963 50.4839 18.1884 50.4839 17.0672C50.4839 15.9459 51.3918 15.038 52.5131 15.038C70.4707 15.038 85.0772 29.6473 85.0772 47.6051C85.0772 48.7264 84.1694 49.6343 83.048 49.6343Z" fill="#F4CE73"/>
</svg>
